<svg id="visual" viewBox="0 0 1920 1440" width="1920" height="1440" xmlns="http://www.w3.org/2000/svg" xmlns:xlink="http://www.w3.org/1999/xlink" version="1.1">
    <rect x="0" y="0" width="1920" height="1440" fill="#14161f"></rect>
    <defs>
        <linearGradient id="grad1_0" x1="25%" y1="100%" x2="100%" y2="0%">
            <stop offset="23.333333333333336%" stop-color="#7d4477" stop-opacity="1"></stop>
            <stop offset="76.66666666666666%" stop-color="#7d4477" stop-opacity="1"></stop>
        </linearGradient>
    </defs>
    <defs>
        <linearGradient id="grad1_1" x1="25%" y1="100%" x2="100%" y2="0%">
            <stop offset="23.333333333333336%" stop-color="#7d4477" stop-opacity="1"></stop>
            <stop offset="76.66666666666666%" stop-color="#50375f" stop-opacity="1"></stop>
        </linearGradient>
    </defs>
    <defs>
        <linearGradient id="grad1_2" x1="25%" y1="100%" x2="100%" y2="0%">
            <stop offset="23.333333333333336%" stop-color="#2c2840" stop-opacity="1"></stop>
            <stop offset="76.66666666666666%" stop-color="#50375f" stop-opacity="1"></stop>
        </linearGradient>
    </defs>
    <defs>
        <linearGradient id="grad1_3" x1="25%" y1="100%" x2="100%" y2="0%">
            <stop offset="23.333333333333336%" stop-color="#2c2840" stop-opacity="1"></stop>
            <stop offset="76.66666666666666%" stop-color="#14161f" stop-opacity="1"></stop>
        </linearGradient>
    </defs>
    <defs>
        <linearGradient id="grad2_0" x1="0%" y1="100%" x2="75%" y2="0%">
            <stop offset="23.333333333333336%" stop-color="#7d4477" stop-opacity="1"></stop>
            <stop offset="76.66666666666666%" stop-color="#7d4477" stop-opacity="1"></stop>
        </linearGradient>
    </defs>
    <defs>
        <linearGradient id="grad2_1" x1="0%" y1="100%" x2="75%" y2="0%">
            <stop offset="23.333333333333336%" stop-color="#50375f" stop-opacity="1"></stop>
            <stop offset="76.66666666666666%" stop-color="#7d4477" stop-opacity="1"></stop>
        </linearGradient>
    </defs>
    <defs>
        <linearGradient id="grad2_2" x1="0%" y1="100%" x2="75%" y2="0%">
            <stop offset="23.333333333333336%" stop-color="#50375f" stop-opacity="1"></stop>
            <stop offset="76.66666666666666%" stop-color="#2c2840" stop-opacity="1"></stop>
        </linearGradient>
    </defs>
    <defs>
        <linearGradient id="grad2_3" x1="0%" y1="100%" x2="75%" y2="0%">
            <stop offset="23.333333333333336%" stop-color="#14161f" stop-opacity="1"></stop>
            <stop offset="76.66666666666666%" stop-color="#2c2840" stop-opacity="1"></stop>
        </linearGradient>
    </defs>
    <g transform="translate(1920, 1440)">
        <path d="M-840 0C-836.7 -117.5 -833.3 -235 -776.1 -321.5C-718.8 -407.9 -607.6 -463.2 -519.7 -519.7C-431.9 -576.2 -367.4 -633.8 -284.7 -687.4C-202 -740.9 -101 -790.5 0 -840L0 0Z" fill="#1e1f30"></path>
        <path d="M-630 0C-627.5 -88.1 -625 -176.3 -582 -241.1C-539.1 -305.9 -455.7 -347.4 -389.8 -389.8C-323.9 -432.2 -275.6 -475.4 -213.5 -515.5C-151.5 -555.7 -75.7 -592.8 0 -630L0 0Z" fill="#3c3050"></path>
        <path d="M-420 0C-418.3 -58.8 -416.7 -117.5 -388 -160.7C-359.4 -203.9 -303.8 -231.6 -259.9 -259.9C-215.9 -288.1 -183.7 -316.9 -142.4 -343.7C-101 -370.5 -50.5 -395.2 0 -420L0 0Z" fill="#653e6c"></path>
        <path d="M-210 0C-209.2 -29.4 -208.3 -58.8 -194 -80.4C-179.7 -102 -151.9 -115.8 -129.9 -129.9C-108 -144.1 -91.9 -158.5 -71.2 -171.8C-50.5 -185.2 -25.2 -197.6 0 -210L0 0Z" fill="#7d4477"></path>
    </g>
    <g transform="translate(0, 0)">
        <path d="M840 0C771.3 98.9 702.5 197.8 632.9 262.1C563.2 326.5 492.6 356.2 449.7 449.7C406.9 543.2 391.8 700.4 321.5 776.1C251.1 851.7 125.6 845.9 0 840L0 0Z" fill="#1e1f30"></path>
        <path d="M630 0C578.4 74.2 526.9 148.4 474.6 196.6C422.4 244.9 369.4 267.2 337.3 337.3C305.2 407.4 293.8 525.3 241.1 582C188.3 638.8 94.2 634.4 0 630L0 0Z" fill="#3c3050"></path>
        <path d="M420 0C385.6 49.5 351.3 98.9 316.4 131.1C281.6 163.2 246.3 178.1 224.9 224.9C203.4 271.6 195.9 350.2 160.7 388C125.6 425.9 62.8 422.9 0 420L0 0Z" fill="#653e6c"></path>
        <path d="M210 0C192.8 24.7 175.6 49.5 158.2 65.5C140.8 81.6 123.1 89.1 112.4 112.4C101.7 135.8 97.9 175.1 80.4 194C62.8 212.9 31.4 211.5 0 210L0 0Z" fill="#7d4477"></path>
    </g>
</svg>